# Blender 4.1.1
# www.blender.org
mtllib hamstercoin.mtl
o Circle
v 0.000000 0.000000 -1.000000
v -0.195090 0.000000 -0.980785
v -0.382683 0.000000 -0.923880
v -0.555570 0.000000 -0.831470
v -0.707107 0.000000 -0.707107
v -0.831470 0.000000 -0.555570
v -0.923880 0.000000 -0.382683
v -0.980785 0.000000 -0.195090
v -1.000000 0.000000 0.000000
v -0.980785 0.000000 0.195090
v -0.923880 0.000000 0.382683
v -0.831470 0.000000 0.555570
v -0.707107 0.000000 0.707107
v -0.555570 0.000000 0.831470
v -0.382683 0.000000 0.923880
v -0.195090 0.000000 0.980785
v 0.000000 0.000000 1.000000
v 0.195090 0.000000 0.980785
v 0.382683 0.000000 0.923880
v 0.555570 0.000000 0.831470
v 0.707107 0.000000 0.707107
v 0.831470 0.000000 0.555570
v 0.923880 0.000000 0.382683
v 0.980785 0.000000 0.195090
v 1.000000 0.000000 0.000000
v 0.980785 0.000000 -0.195090
v 0.923880 0.000000 -0.382683
v 0.831470 0.000000 -0.555570
v 0.707107 0.000000 -0.707107
v 0.555570 0.000000 -0.831470
v 0.382683 0.000000 -0.923880
v 0.195090 0.000000 -0.980785
v 0.000000 0.000000 -1.152375
v -0.224817 0.000000 -1.130232
v -0.440995 0.000000 -1.064655
v -0.640225 0.000000 -0.958165
v -0.814852 0.000000 -0.814852
v -0.958165 0.000000 -0.640225
v -1.064655 0.000000 -0.440995
v -1.130232 0.000000 -0.224817
v -1.152375 0.000000 0.000000
v -1.130232 0.000000 0.224817
v -1.064655 0.000000 0.440995
v -0.958165 0.000000 0.640225
v -0.814852 0.000000 0.814852
v -0.640225 0.000000 0.958165
v -0.440995 0.000000 1.064655
v -0.224817 0.000000 1.130232
v 0.000000 0.000000 1.152375
v 0.224817 0.000000 1.130232
v 0.440995 0.000000 1.064655
v 0.640225 0.000000 0.958165
v 0.814852 0.000000 0.814852
v 0.958165 0.000000 0.640225
v 1.064655 0.000000 0.440995
v 1.130232 0.000000 0.224817
v 1.152375 0.000000 0.000000
v 1.130232 0.000000 -0.224817
v 1.064655 0.000000 -0.440995
v 0.958165 0.000000 -0.640225
v 0.814852 0.000000 -0.814852
v 0.640225 0.000000 -0.958165
v 0.440995 0.000000 -1.064655
v 0.224817 0.000000 -1.130232
v -0.224817 0.151678 -1.130232
v 0.000000 0.151678 -1.152375
v -0.440995 0.151678 -1.064655
v -0.640225 0.151678 -0.958165
v -0.814852 0.151678 -0.814852
v -0.958165 0.151678 -0.640225
v -1.064655 0.151678 -0.440995
v -1.130232 0.151678 -0.224817
v -1.152375 0.151678 0.000000
v -1.130232 0.151678 0.224817
v -1.064655 0.151678 0.440995
v -0.958165 0.151678 0.640225
v -0.814852 0.151678 0.814852
v -0.640225 0.151678 0.958165
v -0.440995 0.151678 1.064655
v -0.224817 0.151678 1.130232
v 0.000000 0.151678 1.152375
v 0.224817 0.151678 1.130232
v 0.440995 0.151678 1.064655
v 0.640225 0.151678 0.958165
v 0.814852 0.151678 0.814852
v 0.958165 0.151678 0.640225
v 1.064655 0.151678 0.440995
v 1.130232 0.151678 0.224817
v 1.152375 0.151678 0.000000
v 1.130232 0.151678 -0.224817
v 1.064655 0.151678 -0.440995
v 0.958165 0.151678 -0.640225
v 0.814852 0.151678 -0.814852
v 0.640225 0.151678 -0.958165
v 0.440995 0.151678 -1.064655
v 0.224817 0.151678 -1.130232
v -0.195090 0.155689 -0.980785
v 0.000000 0.155689 -1.000000
v -0.382683 0.155689 -0.923880
v -0.555570 0.155689 -0.831470
v -0.707107 0.155689 -0.707107
v -0.831470 0.155689 -0.555570
v -0.923880 0.155689 -0.382683
v -0.980785 0.155689 -0.195090
v -1.000000 0.155689 0.000000
v -0.980785 0.155689 0.195090
v -0.923880 0.155689 0.382683
v -0.831470 0.155689 0.555570
v -0.707107 0.155689 0.707107
v -0.555570 0.155689 0.831470
v -0.382683 0.155689 0.923880
v -0.195090 0.155689 0.980785
v 0.000000 0.155689 1.000000
v 0.195090 0.155689 0.980785
v 0.382683 0.155689 0.923880
v 0.555570 0.155689 0.831470
v 0.707107 0.155689 0.707107
v 0.831470 0.155689 0.555570
v 0.923880 0.155689 0.382683
v 0.980785 0.155689 0.195090
v 1.000000 0.155689 0.000000
v 0.980785 0.155689 -0.195090
v 0.923880 0.155689 -0.382683
v 0.831470 0.155689 -0.555570
v 0.707107 0.155689 -0.707107
v 0.555570 0.155689 -0.831470
v 0.382683 0.155689 -0.923880
v 0.195090 0.155689 -0.980785
v -0.195090 -0.005280 -0.980785
v 0.000000 -0.005280 -1.000000
v -0.382683 -0.005280 -0.923880
v -0.555570 -0.005280 -0.831470
v -0.707107 -0.005280 -0.707107
v -0.831470 -0.005280 -0.555570
v -0.923880 -0.005280 -0.382683
v -0.980785 -0.005280 -0.195090
v -1.000000 -0.005280 0.000000
v -0.980785 -0.005280 0.195090
v -0.923880 -0.005280 0.382683
v -0.831470 -0.005280 0.555570
v -0.707107 -0.005280 0.707107
v -0.555570 -0.005280 0.831470
v -0.382683 -0.005280 0.923880
v -0.195090 -0.005280 0.980785
v 0.000000 -0.005280 1.000000
v 0.195090 -0.005280 0.980785
v 0.382683 -0.005280 0.923880
v 0.555570 -0.005280 0.831470
v 0.707107 -0.005280 0.707107
v 0.831470 -0.005280 0.555570
v 0.923880 -0.005280 0.382683
v 0.980785 -0.005280 0.195090
v 1.000000 -0.005280 0.000000
v 0.980785 -0.005280 -0.195090
v 0.923880 -0.005280 -0.382683
v 0.831470 -0.005280 -0.555570
v 0.707107 -0.005280 -0.707107
v 0.555570 -0.005280 -0.831470
v 0.382683 -0.005280 -0.923880
v 0.195090 -0.005280 -0.980785
v -0.316008 0.151678 -1.102570
v -0.364096 0.151678 -0.906105
v -0.710120 0.151678 0.710061
v 0.388585 0.151678 0.922457
v 0.712953 0.151678 -0.698818
v -0.227844 0.000000 -1.160967
v -0.003027 0.000000 -1.183110
v -0.654783 0.000000 -0.985401
v -0.455553 0.000000 -1.091892
v -0.982038 0.000000 -0.659817
v -0.838725 0.000000 -0.834444
v -1.159786 0.000000 -0.233782
v -1.094209 0.000000 -0.449960
v -1.160967 0.000000 0.227844
v -1.183110 0.000000 0.003027
v -0.985401 0.000000 0.654783
v -1.091892 0.000000 0.455553
v -0.659817 0.000000 0.982038
v -0.834444 0.000000 0.838725
v -0.233782 0.000000 1.159786
v -0.449960 0.000000 1.094209
v 0.227844 0.000000 1.160967
v 0.003027 0.000000 1.183110
v 0.654783 0.000000 0.985401
v 0.455553 0.000000 1.091892
v 0.982038 0.000000 0.659817
v 0.838725 0.000000 0.834444
v 1.159786 0.000000 0.233782
v 1.094209 0.000000 0.449960
v 1.160967 0.000000 -0.227844
v 1.183110 0.000000 -0.003027
v 0.985401 0.000000 -0.654783
v 1.091892 0.000000 -0.455553
v 0.659817 0.000000 -0.982038
v 0.834444 0.000000 -0.838725
v 0.233782 0.000000 -1.159786
v 0.449960 0.000000 -1.094209
v -0.227844 0.151678 -1.160967
v -0.003027 0.151678 -1.183110
v -0.654783 0.151678 -0.985401
v -0.455553 0.151678 -1.091892
v -0.982038 0.151678 -0.659817
v -0.838725 0.151678 -0.834444
v -1.159786 0.151678 -0.233782
v -1.094209 0.151678 -0.449960
v -1.160967 0.151678 0.227844
v -1.183110 0.151678 0.003027
v -0.985401 0.151678 0.654783
v -1.091892 0.151678 0.455553
v -0.659817 0.151678 0.982038
v -0.834444 0.151678 0.838725
v -0.233782 0.151678 1.159786
v -0.449960 0.151678 1.094209
v 0.227844 0.151678 1.160967
v 0.003027 0.151678 1.183110
v 0.654783 0.151678 0.985401
v 0.455553 0.151678 1.091892
v 0.982038 0.151678 0.659817
v 0.838725 0.151678 0.834444
v 1.159786 0.151678 0.233782
v 1.094209 0.151678 0.449960
v 1.160967 0.151678 -0.227844
v 1.183110 0.151678 -0.003027
v 0.985401 0.151678 -0.654783
v 1.091892 0.151678 -0.455553
v 0.659817 0.151678 -0.982038
v 0.834444 0.151678 -0.838725
v 0.233782 0.151678 -1.159786
v 0.449960 0.151678 -1.094209
vn -0.9952 -0.0000 -0.0980
vn -0.9569 -0.0000 0.2903
vn -0.0000 -1.0000 -0.0000
vn -0.0000 1.0000 -0.0000
vn 0.9952 -0.0000 0.0980
vn -0.7730 -0.0000 0.6344
vn 0.9569 -0.0000 -0.2903
vn -0.6344 -0.0000 0.7730
vn -0.4714 -0.0000 0.8819
vn -0.8819 -0.0000 0.4714
vn 0.7730 -0.0000 -0.6344
vn -0.2903 -0.0000 -0.9569
vn -0.0980 -0.0000 0.9952
vn 0.4714 -0.0000 -0.8819
vn -0.9569 -0.0000 -0.2903
vn -0.6344 -0.0000 -0.7730
vn 0.6344 -0.0000 -0.7730
vn 0.2903 -0.0000 0.9569
vn 0.0980 -0.0000 -0.9952
vn -0.8819 -0.0000 -0.4714
vn 0.6344 -0.0000 0.7730
vn 0.9952 -0.0000 -0.0980
vn 0.8819 -0.0000 0.4714
vn 0.9569 -0.0000 0.2903
vn 0.8819 -0.0000 -0.4714
vn -0.9952 -0.0000 0.0980
vn 0.0980 -0.0000 0.9952
vn 0.2903 -0.0000 -0.9569
vn 0.4714 -0.0000 0.8819
vn -0.0980 -0.0000 -0.9952
vn -0.2903 -0.0000 0.9569
vn 0.7730 -0.0000 0.6344
vn -0.4714 -0.0000 -0.8819
vn -0.7730 -0.0000 -0.6344
vt 0.000000 0.000000
vt 1.014730 0.000817
vt 1.010504 0.968390
vt 0.050252 0.968390
vt 0.054921 0.011172
vt 0.993651 0.035874
vt 1.024007 0.920449
vt 0.060753 0.938085
vt 0.087881 0.043827
s 0
usemtl Material.001
f 25/1/1 24/1/1 120/1/1 121/1/1
f 121/1/5 120/1/5 152/1/5 153/1/5
f 12/1/25 11/1/25 107/1/25 108/1/25
f 26/1/26 25/1/26 121/1/26 122/1/26
f 13/1/11 12/1/11 108/1/11 109/1/11
f 27/1/2 26/1/2 122/1/2 123/1/2
f 14/1/17 13/1/17 109/1/17 110/1/17
f 28/1/10 27/1/10 123/1/10 124/1/10
f 15/1/14 14/1/14 110/1/14 111/1/14
f 2/1/27 1/1/27 98/1/27 97/1/27
f 29/1/6 28/1/6 124/1/6 125/1/6
f 16/1/28 15/1/28 111/1/28 112/1/28
f 3/1/18 2/1/18 97/1/18 99/1/18
f 30/1/8 29/1/8 125/1/8 126/1/8
f 17/1/19 16/1/19 112/1/19 113/1/19
f 4/1/29 3/1/29 99/1/29 100/1/29
f 18/1/30 17/1/30 113/1/30 114/1/30
f 5/1/21 4/1/21 100/1/21 101/1/21
f 32/1/31 31/1/31 127/1/31 128/1/31
f 19/1/12 18/1/12 114/1/12 115/1/12
f 6/1/32 5/1/32 101/1/32 102/1/32
f 1/1/13 32/1/13 128/1/13 98/1/13
f 20/1/33 19/1/33 115/1/33 116/1/33
f 7/1/23 6/1/23 102/1/23 103/1/23
f 21/1/16 20/1/16 116/1/16 117/1/16
f 8/1/24 7/1/24 103/1/24 104/1/24
f 22/1/34 21/1/34 117/1/34 118/1/34
f 9/1/5 8/1/5 104/1/5 105/1/5
f 23/1/20 22/1/20 118/1/20 119/1/20
f 10/1/22 9/1/22 105/1/22 106/1/22
f 24/1/15 23/1/15 119/1/15 120/1/15
f 11/1/7 10/1/7 106/1/7 107/1/7
f 108/1/10 107/1/10 139/1/10 140/1/10
f 122/1/22 121/1/22 153/1/22 154/1/22
f 109/1/6 108/1/6 140/1/6 141/1/6
f 123/1/7 122/1/7 154/1/7 155/1/7
f 110/1/8 109/1/8 141/1/8 142/1/8
f 124/1/25 123/1/25 155/1/25 156/1/25
f 111/1/9 110/1/9 142/1/9 143/1/9
f 97/1/30 98/1/30 130/1/30 129/1/30
f 125/1/11 124/1/11 156/1/11 157/1/11
f 112/1/31 111/1/31 143/1/31 144/1/31
f 99/1/12 97/1/12 129/1/12 131/1/12
f 126/1/17 125/1/17 157/1/17 158/1/17
f 113/1/13 112/1/13 144/1/13 145/1/13
f 100/1/33 99/1/33 131/1/33 132/1/33
f 114/1/27 113/1/27 145/1/27 146/1/27
f 101/1/16 100/1/16 132/1/16 133/1/16
f 128/1/28 127/1/28 159/1/28 160/1/28
f 115/1/18 114/1/18 146/1/18 147/1/18
f 102/1/34 101/1/34 133/1/34 134/1/34
f 98/1/19 128/1/19 160/1/19 130/1/19
f 116/1/29 115/1/29 147/1/29 148/1/29
f 103/1/20 102/1/20 134/1/20 135/1/20
f 117/1/21 116/1/21 148/1/21 149/1/21
f 104/1/15 103/1/15 135/1/15 136/1/15
f 118/1/32 117/1/32 149/1/32 150/1/32
f 105/1/1 104/1/1 136/1/1 137/1/1
f 119/1/23 118/1/23 150/1/23 151/1/23
f 106/1/26 105/1/26 137/1/26 138/1/26
f 120/1/24 119/1/24 151/1/24 152/1/24
f 107/1/2 106/1/2 138/1/2 139/1/2
f 163/2/4 164/3/4 165/4/4 162/5/4
f 133/6/3 159/7/3 148/8/3 142/9/3
usemtl Material.002
f 42/1/2 43/1/2 75/1/2 74/1/2
f 26/1/3 27/1/3 59/1/3 58/1/3
f 13/1/3 14/1/3 46/1/3 45/1/3
f 27/1/3 28/1/3 60/1/3 59/1/3
f 14/1/3 15/1/3 47/1/3 46/1/3
f 1/1/3 2/1/3 34/1/3 33/1/3
f 28/1/3 29/1/3 61/1/3 60/1/3
f 15/1/3 16/1/3 48/1/3 47/1/3
f 2/1/3 3/1/3 35/1/3 34/1/3
f 29/1/3 30/1/3 62/1/3 61/1/3
f 16/1/3 17/1/3 49/1/3 48/1/3
f 3/1/3 4/1/3 36/1/3 35/1/3
f 30/1/3 31/1/3 63/1/3 62/1/3
f 17/1/3 18/1/3 50/1/3 49/1/3
f 4/1/3 5/1/3 37/1/3 36/1/3
f 31/1/3 32/1/3 64/1/3 63/1/3
f 18/1/3 19/1/3 51/1/3 50/1/3
f 5/1/3 6/1/3 38/1/3 37/1/3
f 32/1/3 1/1/3 33/1/3 64/1/3
f 19/1/3 20/1/3 52/1/3 51/1/3
f 6/1/3 7/1/3 39/1/3 38/1/3
f 20/1/3 21/1/3 53/1/3 52/1/3
f 7/1/3 8/1/3 40/1/3 39/1/3
f 21/1/3 22/1/3 54/1/3 53/1/3
f 8/1/3 9/1/3 41/1/3 40/1/3
f 22/1/3 23/1/3 55/1/3 54/1/3
f 9/1/3 10/1/3 42/1/3 41/1/3
f 23/1/3 24/1/3 56/1/3 55/1/3
f 10/1/3 11/1/3 43/1/3 42/1/3
f 24/1/3 25/1/3 57/1/3 56/1/3
f 11/1/3 12/1/3 44/1/3 43/1/3
f 25/1/3 26/1/3 58/1/3 57/1/3
f 12/1/3 13/1/3 45/1/3 44/1/3
f 65/1/4 161/1/4 96/1/4 66/1/4
f 56/1/5 57/1/5 89/1/5 88/1/5
f 49/1/3 50/1/3 182/1/3 183/1/3
f 70/1/4 69/1/4 203/1/4 202/1/4
f 44/1/6 45/1/6 77/1/6 76/1/6
f 58/1/7 59/1/7 91/1/7 90/1/7
f 96/1/4 95/1/4 229/1/4 228/1/4
f 38/1/8 70/1/8 202/1/8 170/1/8
f 46/1/9 47/1/9 79/1/9 78/1/9
f 83/1/10 51/1/10 185/1/10 217/1/10
f 60/1/11 61/1/11 93/1/11 92/1/11
f 47/1/3 48/1/3 180/1/3 181/1/3
f 34/1/12 35/1/12 67/1/12 161/1/12 65/1/12
f 68/1/4 67/1/4 201/1/4 200/1/4
f 48/1/13 49/1/13 81/1/13 80/1/13
f 94/1/4 93/1/4 227/1/4 226/1/4
f 62/1/14 63/1/14 95/1/14 94/1/14
f 64/1/15 96/1/15 228/1/15 196/1/15
f 36/1/16 37/1/16 69/1/16 68/1/16
f 69/1/17 37/1/17 171/1/17 203/1/17
f 50/1/18 51/1/18 83/1/18 82/1/18
f 45/1/3 46/1/3 178/1/3 179/1/3
f 64/1/19 33/1/19 66/1/19 96/1/19
f 65/1/4 66/1/4 199/1/4 198/1/4
f 38/1/20 39/1/20 71/1/20 70/1/20
f 52/1/21 53/1/21 85/1/21 84/1/21
f 92/1/4 91/1/4 225/1/4 224/1/4
f 50/1/22 82/1/22 214/1/22 182/1/22
f 40/1/1 41/1/1 73/1/1 72/1/1
f 54/1/23 55/1/23 87/1/23 86/1/23
f 95/1/24 63/1/24 197/1/24 229/1/24
f 43/1/3 44/1/3 176/1/3 177/1/3
f 31/1/9 30/1/9 126/1/9 127/1/9
f 129/1/3 130/1/3 160/1/3 159/1/3 133/1/3 132/1/3 131/1/3
f 127/1/14 126/1/14 158/1/14 159/1/14
f 96/1/4 161/1/4 162/1/4 165/1/4 93/1/4 94/1/4 95/1/4
f 93/1/4 165/1/4 164/1/4 163/1/4 77/1/4 78/1/4 79/1/4 80/1/4 81/1/4 82/1/4 83/1/4 84/1/4 85/1/4 86/1/4 87/1/4 88/1/4 89/1/4 90/1/4 91/1/4 92/1/4
f 162/1/4 161/1/4 67/1/4 68/1/4 69/1/4 70/1/4 71/1/4 72/1/4 73/1/4 74/1/4 75/1/4 76/1/4 77/1/4 163/1/4
f 177/1/10 176/1/10 208/1/10 209/1/10
f 191/1/22 190/1/22 222/1/22 223/1/22
f 179/1/8 178/1/8 210/1/8 211/1/8
f 193/1/25 192/1/25 224/1/25 225/1/25
f 167/1/30 166/1/30 198/1/30 199/1/30
f 181/1/31 180/1/31 212/1/31 213/1/31
f 195/1/17 194/1/17 226/1/17 227/1/17
f 169/1/33 168/1/33 200/1/33 201/1/33
f 183/1/27 182/1/27 214/1/27 215/1/27
f 197/1/28 196/1/28 228/1/28 229/1/28
f 171/1/34 170/1/34 202/1/34 203/1/34
f 185/1/29 184/1/29 216/1/29 217/1/29
f 173/1/15 172/1/15 204/1/15 205/1/15
f 187/1/32 186/1/32 218/1/32 219/1/32
f 175/1/26 174/1/26 206/1/26 207/1/26
f 189/1/24 188/1/24 220/1/24 221/1/24
f 52/1/25 84/1/25 216/1/25 184/1/25
f 71/1/28 39/1/28 173/1/28 205/1/28
f 75/1/33 43/1/33 177/1/33 209/1/33
f 72/1/4 71/1/4 205/1/4 204/1/4
f 51/1/3 52/1/3 184/1/3 185/1/3
f 85/1/8 53/1/8 187/1/8 219/1/8
f 42/1/27 74/1/27 206/1/27 174/1/27
f 40/1/31 72/1/31 204/1/31 172/1/31
f 89/1/27 57/1/27 191/1/27 223/1/27
f 74/1/4 73/1/4 207/1/4 206/1/4
f 53/1/3 54/1/3 186/1/3 187/1/3
f 54/1/17 86/1/17 218/1/17 186/1/17
f 56/1/28 88/1/28 220/1/28 188/1/28
f 73/1/30 41/1/30 175/1/30 207/1/30
f 44/1/29 76/1/29 208/1/29 176/1/29
f 76/1/4 75/1/4 209/1/4 208/1/4
f 55/1/3 56/1/3 188/1/3 189/1/3
f 87/1/31 55/1/31 189/1/31 221/1/31
f 58/1/30 90/1/30 222/1/30 190/1/30
f 77/1/34 45/1/34 179/1/34 211/1/34
f 78/1/4 77/1/4 211/1/4 210/1/4
f 57/1/3 58/1/3 190/1/3 191/1/3
f 91/1/29 59/1/29 193/1/29 225/1/29
f 46/1/32 78/1/32 210/1/32 178/1/32
f 80/1/4 79/1/4 213/1/4 212/1/4
f 59/1/3 60/1/3 192/1/3 193/1/3
f 33/1/3 34/1/3 166/1/3 167/1/3
f 60/1/33 92/1/33 224/1/33 192/1/33
f 79/1/15 47/1/15 181/1/15 213/1/15
f 82/1/4 81/1/4 215/1/4 214/1/4
f 61/1/3 62/1/3 194/1/3 195/1/3
f 35/1/3 36/1/3 168/1/3 169/1/3
f 34/1/26 65/1/26 198/1/26 166/1/26
f 66/1/22 33/1/22 167/1/22 199/1/22
f 84/1/4 83/1/4 217/1/4 216/1/4
f 63/1/3 64/1/3 196/1/3 197/1/3
f 37/1/3 38/1/3 170/1/3 171/1/3
f 93/1/32 61/1/32 195/1/32 227/1/32
f 48/1/24 80/1/24 212/1/24 180/1/24
f 86/1/4 85/1/4 219/1/4 218/1/4
f 39/1/3 40/1/3 172/1/3 173/1/3
f 67/1/25 35/1/25 169/1/25 201/1/25
f 62/1/34 94/1/34 226/1/34 194/1/34
f 88/1/4 87/1/4 221/1/4 220/1/4
f 41/1/3 42/1/3 174/1/3 175/1/3
f 81/1/26 49/1/26 183/1/26 215/1/26
f 36/1/10 68/1/10 200/1/10 168/1/10
f 90/1/4 89/1/4 223/1/4 222/1/4
f 142/1/3 148/1/3 147/1/3 146/1/3 145/1/3 144/1/3 143/1/3
f 142/1/3 141/1/3 140/1/3 139/1/3 138/1/3 137/1/3 136/1/3 135/1/3 134/1/3 133/1/3
f 148/1/3 159/1/3 158/1/3 157/1/3 156/1/3 155/1/3 154/1/3 153/1/3 152/1/3 151/1/3 150/1/3 149/1/3
